<svg xmlns="http://www.w3.org/2000/svg" xmlns:xlink="http://www.w3.org/1999/xlink" viewBox="0,0,256,256" width="32px" height="32px" fill-rule="nonzero"><g fill="none" fill-rule="nonzero" stroke="none" stroke-width="1" stroke-linecap="butt" stroke-linejoin="miter" stroke-miterlimit="10" stroke-dasharray="" stroke-dashoffset="0" font-family="none" font-weight="none" font-size="none" text-anchor="none" style="mix-blend-mode: normal"><g><path d="M219.784,210.136c2.906,-2.953 4.01,-7.228 2.872,-11.211l-2.382,-8.337c-0.987,-3.454 -3.536,-6.246 -6.887,-7.541l-38.596,-14.924c-5.542,-2.143 -11.827,-0.815 -16.029,3.387l-6.402,6.402c-2.171,2.171 -5.263,3.205 -8.286,2.665c-17.907,-3.196 -34.509,-11.807 -47.456,-24.755c-11.326,-11.326 -19.318,-25.452 -23.283,-40.8c-0.844,-3.267 0.109,-6.738 2.495,-9.124l8.661,-8.661c4.202,-4.202 5.53,-10.487 3.387,-16.029l-14.924,-38.595c-1.296,-3.351 -4.087,-5.9 -7.541,-6.887l-8.337,-2.382c-3.981,-1.137 -8.254,-0.038 -11.205,2.866c-6.908,6.796 -18.489,21.062 -20.935,42.095c-1.4,12.04 1.414,23.74 5.324,33.488c1.841,4.589 3.289,9.318 4.559,14.096c5.82,21.89 17.324,42.026 33.515,58.217c14.533,14.533 32.245,25.291 51.55,31.551c5.966,1.935 11.807,4.252 17.436,7.017c10.832,5.32 25.342,10.139 40.375,8.391c21.027,-2.445 35.291,-14.021 42.089,-20.929z" fill="#70d6f9"></path><path d="M165.746,130.023c0,-21.929 -17.841,-39.769 -39.769,-39.769c-3.313,0 -6,-2.687 -6,-6c0,-3.314 2.686,-6 6,-6c28.545,0 51.769,23.224 51.769,51.769c0,3.314 -2.686,6 -6,6c-3.314,0 -6,-2.687 -6,-6z" fill="#9be5f9"></path><path d="M192.588,128.609c0.001,-35.973 -29.222,-65.197 -65.197,-65.197c-3.313,0 -5.999,-2.686 -6,-6c0,-3.314 2.686,-6 6,-6c42.607,0 77.197,34.589 77.197,77.197c0,3.314 -2.686,6 -6,6c-3.313,0 -6,-2.686 -6,-6z" fill="#9be5f9"></path><path d="M219.43,127.195c0,-50.005 -40.618,-90.624 -90.624,-90.624c-3.313,0 -5.999,-2.686 -6,-6c0,-3.314 2.686,-6 6,-6c56.636,0 102.624,45.985 102.624,102.624c0,3.314 -2.686,6 -6,6c-3.313,0 -6,-2.686 -6,-6z" fill="#9be5f9"></path><path d="M77.569,104.16l6.922,-6.922c4.202,-4.202 5.53,-10.487 3.387,-16.029l-14.924,-38.596c-1.296,-3.351 -4.087,-5.9 -7.541,-6.887l-8.337,-2.382c-2.08,-0.594 -4.235,-0.564 -6.244,0.001z" fill="#9be5f9"></path><path d="M223.033,203.095c0.125,-1.381 0.017,-2.792 -0.377,-4.17l-2.382,-8.337c-0.987,-3.454 -3.536,-6.246 -6.887,-7.541l-38.596,-14.924c-5.542,-2.143 -11.827,-0.815 -16.029,3.387l-5.313,5.313z" fill="#9be5f9"></path><path d="M171.426,233.921c-11.078,0 -23.114,-3.063 -35.208,-9.003c-5.314,-2.61 -11.069,-4.925 -17.105,-6.883c-19.736,-6.399 -37.906,-17.521 -52.547,-32.162c-16.385,-16.384 -28.198,-36.905 -34.163,-59.342c-1.441,-5.422 -2.86,-9.81 -4.464,-13.808c-4.899,-12.211 -6.745,-23.889 -5.487,-34.707c2.545,-21.883 14.666,-36.703 21.665,-43.589c3.588,-3.531 8.816,-4.868 13.646,-3.488l8.338,2.382c4.183,1.195 7.617,4.331 9.186,8.389l14.923,38.597c2.499,6.46 0.948,13.8 -3.95,18.698l-8.661,8.661c-1.755,1.755 -2.461,4.334 -1.842,6.731c3.88,15.018 11.706,28.731 22.63,39.657c12.605,12.604 28.556,20.925 46.128,24.062c2.183,0.388 4.455,-0.348 6.079,-1.972l6.402,-6.402c4.897,-4.899 12.237,-6.451 18.698,-3.951l38.596,14.924c4.058,1.569 7.194,5.003 8.389,9.187l2.382,8.337c1.38,4.829 0.041,10.06 -3.494,13.651v0c-6.886,6.997 -21.705,19.115 -43.583,21.659c-2.142,0.248 -4.331,0.372 -6.558,0.372zM53.939,35.405c-2.327,0 -4.609,0.908 -6.316,2.587c-6.53,6.424 -17.837,20.242 -20.205,40.602c-1.161,9.981 0.576,20.838 5.161,32.268c1.681,4.191 3.161,8.762 4.655,14.385c5.739,21.587 17.104,41.329 32.866,57.091c14.085,14.085 31.566,24.784 50.554,30.941c6.262,2.03 12.24,4.436 17.768,7.15c9.526,4.679 24.024,9.895 38.984,8.152c20.354,-2.367 34.172,-13.671 40.597,-20.199v0c2.273,-2.31 3.135,-5.671 2.25,-8.771l-2.382,-8.337c-0.767,-2.685 -2.78,-4.89 -5.385,-5.897l-38.596,-14.924c-4.618,-1.785 -9.861,-0.676 -13.36,2.823l-6.402,6.402c-2.779,2.78 -6.701,4.038 -10.493,3.359c-18.583,-3.317 -35.453,-12.117 -48.784,-25.448c-11.556,-11.556 -19.833,-26.059 -23.936,-41.941c-1.06,-4.103 0.146,-8.516 3.148,-11.517l8.661,-8.661c3.499,-3.5 4.607,-8.744 2.822,-13.36l-14.923,-38.596c-1.007,-2.604 -3.212,-4.617 -5.896,-5.384l-8.338,-2.382c-0.807,-0.231 -1.631,-0.343 -2.45,-0.343zM219.785,210.136h0.01z" fill="#000000"></path><circle cx="27.206" cy="173.6" r="3.4" fill="#c1e85d"></circle><path d="M235.15,160.175c-3.1,-0.6 -5.6,-3 -6.2,-6.1c0,-0.1 -0.3,-0.1 -0.3,0c-0.6,3.1 -3.1,5.5 -6.2,6.1c-0.1,0 -0.1,0.2 0,0.3c3.1,0.6 5.6,3 6.2,6.1c0,0.1 0.3,0.1 0.3,0c0.6,-3.1 3.1,-5.5 6.2,-6.1c0.1,-0.1 0.1,-0.3 0,-0.3z" fill="#70d6f9"></path><circle cx="214.369" cy="33.4" r="3.4" fill="#fc657e"></circle><path d="M3.205,153.5h2.3v2.3c0,1.8 1.4,3.2 3.2,3.2c1.7,0 3.2,-1.4 3.2,-3.1v-0.1v-2.3h2.3c1.8,0 3.2,-1.4 3.2,-3.2c0,-1.7 -1.4,-3.2 -3.1,-3.2h-0.1h-2.3v-2.3c0,-1.8 -1.4,-3.2 -3.2,-3.2c-1.7,0 -3.2,1.4 -3.2,3.1v0.1v2.3h-2.3c-1.8,0 -3.2,1.4 -3.2,3.2c-0.1,1.7 1.3,3.2 3.2,3.2c-0.1,0 -0.1,0 0,0z" fill="#87d147"></path><path d="M237.65,51.2c4.5,-0.8 8,-4.3 8.9,-8.7c0,-0.2 0.4,-0.2 0.4,0c0.9,4.4 4.4,7.9 8.9,8.7c0.2,0 0.2,0.3 0,0.4c-4.5,0.8 -8,4.3 -8.9,8.7c0,0.2 -0.4,0.2 -0.4,0c-0.9,-4.4 -4.4,-7.9 -8.9,-8.7c-0.2,-0.1 -0.2,-0.4 0,-0.4z" fill="#c1e85d"></path><path d="M171.746,138.523c-4.687,0 -8.5,-3.813 -8.5,-8.5c0,-20.55 -16.719,-37.269 -37.269,-37.269c-4.687,0 -8.5,-3.813 -8.5,-8.5c0,-4.687 3.813,-8.5 8.5,-8.5c29.924,0 54.269,24.345 54.269,54.269c0,4.687 -3.813,8.5 -8.5,8.5zM125.977,80.754c-1.93,0 -3.5,1.57 -3.5,3.5c0,1.93 1.57,3.5 3.5,3.5c23.307,0 42.269,18.962 42.269,42.269c0,1.93 1.57,3.5 3.5,3.5c1.93,0 3.5,-1.57 3.5,-3.5c0,-27.167 -22.102,-49.269 -49.269,-49.269z" fill="#000000"></path><path d="M198.588,137.109c-4.687,0 -8.5,-3.813 -8.5,-8.5v0c0,-16.731 -6.525,-32.471 -18.375,-44.321c-11.85,-11.851 -27.59,-18.376 -44.321,-18.376c-4.686,0 -8.5,-3.813 -8.5,-8.5c0,-4.688 3.813,-8.5 8.5,-8.5c43.945,0 79.697,35.752 79.697,79.697c-0.001,4.687 -3.814,8.5 -8.501,8.5zM195.088,128.609c0,1.93 1.57,3.5 3.5,3.5c1.93,0 3.5,-1.57 3.5,-3.5c0,-41.188 -33.509,-74.697 -74.697,-74.697c-1.93,0 -3.5,1.57 -3.5,3.5c0,1.93 1.57,3.5 3.5,3.5c18.066,0 35.063,7.045 47.857,19.84c12.794,12.795 19.84,29.79 19.84,47.857z" fill="#000000"></path><path d="M225.43,135.695c-4.687,0 -8.5,-3.813 -8.5,-8.5c0,-48.592 -39.533,-88.125 -88.125,-88.125c-4.686,0 -8.499,-3.813 -8.5,-8.499c0,-4.688 3.813,-8.501 8.5,-8.501c57.966,0 105.125,47.159 105.125,105.125c0,4.687 -3.813,8.5 -8.5,8.5zM128.805,27.07c-1.93,0 -3.5,1.57 -3.5,3.5c0,1.93 1.571,3.5 3.5,3.5c51.349,0 93.125,41.775 93.125,93.125c0,1.93 1.57,3.5 3.5,3.5c1.93,0 3.5,-1.57 3.5,-3.5c0,-55.209 -44.916,-100.125 -100.125,-100.125z" fill="#000000"></path><path d="M77.452,106.35c-1.01,0 -1.961,-0.617 -2.339,-1.617l-26.211,-69.42c-0.488,-1.292 0.164,-2.734 1.456,-3.222c1.293,-0.488 2.735,0.165 3.222,1.456l26.211,69.42c0.488,1.292 -0.164,2.734 -1.456,3.222c-0.291,0.109 -0.589,0.161 -0.883,0.161z" fill="#000000"></path><path d="M222.373,205.346c-0.293,0 -0.592,-0.052 -0.883,-0.162l-68.219,-25.757c-1.292,-0.488 -1.943,-1.93 -1.456,-3.222c0.487,-1.291 1.929,-1.945 3.222,-1.456l68.219,25.757c1.292,0.488 1.943,1.93 1.456,3.222c-0.378,1.001 -1.329,1.618 -2.339,1.618z" fill="#000000"></path></g></g></svg>