<?xml version='1.0' encoding='utf-8'?>
<svg xmlns="http://www.w3.org/2000/svg" width="1000" height="1000" viewBox="0 0 264.58332 264.58334" version="1.1" id="svg5"> <defs id="defs2"/> <metadata id="metadata856"> </metadata> <rect style="fill:#f7f7f7;fill-opacity:1;stroke:none;stroke-width:10.5833;stroke-linecap:square;stroke-miterlimit:4;stroke-dasharray:none;stroke-opacity:1;paint-order:stroke markers fill" id="rect35197" width="264.58334" height="264.58334" x="-2.0258789e-05" y="0"/> <path id="rect857" style="fill:none;fill-opacity:1;stroke:#4d4d4d;stroke-width:7.9375;stroke-linecap:round;stroke-opacity:1;paint-order:fill markers stroke" d="M 78.51927,168.16177 H 61.854148 c -0.552283,0 -0.999998,-0.44771 -0.999998,-1 V 82.798003 c 0,-0.552283 0.447715,-1 0.999998,-1 v 0 h 80.077182 c 0.55228,0 1,0.447714 1,1 v 85.363767 h -40.02596"/> <path id="rect881" style="fill:none;fill-opacity:1;stroke:#4d4d4d;stroke-width:7.9375;stroke-linecap:round;stroke-opacity:1;paint-order:fill markers stroke" d="m 161.70022,168.16177 h -18.76884 v -74.986446 0 h 38.24684 c 0.62533,0 1.20989,0.310356 1.56021,0.82835 l 20.43051,30.209476 c 0.36509,0.53985 0.56021,1.17664 0.56021,1.82835 v 41.12027 c 0,0.55229 -0.44772,1 -1,1 h -16.64597"/> <ellipse style="fill:none;fill-opacity:1;stroke:#4d4d4d;stroke-width:6.61458;stroke-linecap:round;stroke-miterlimit:4;stroke-dasharray:none;stroke-opacity:1;paint-order:fill markers stroke" id="path1227" cx="90.703415" cy="171.78027" rx="11.725318" ry="11.666513"/> <ellipse style="fill:none;fill-opacity:1;stroke:#4d4d4d;stroke-width:6.61458;stroke-linecap:round;stroke-miterlimit:4;stroke-dasharray:none;stroke-opacity:1;paint-order:fill markers stroke" id="circle1147" cx="173.88007" cy="171.78027" rx="11.725318" ry="11.666513"/> <path id="path1149" style="fill-opacity:1;stroke:#0573e1;stroke-width:6.61458;stroke-linecap:round;stroke-miterlimit:4;stroke-dasharray:none;stroke-opacity:1;paint-order:fill markers stroke;fill:none" d="m 156.34599,105.12976 h 17.56591 c 0.62575,0 1.21114,0.309 1.56417,0.82566 l 14.37036,21.67577 c 0.2394,0.35035 -0.0115,0.82566 -0.43583,0.82566 h -33.06461 c -0.55228,0 -1,-0.44772 -1,-1 v -21.32709 c 0,-0.55228 0.44772,-1 1,-1 z"/> <ellipse style="fill:#4d4d4d;fill-opacity:1;stroke:none;stroke-width:6.61459;stroke-linecap:round;stroke-miterlimit:4;stroke-dasharray:none;paint-order:fill markers stroke" id="ellipse13014" cx="90.703415" cy="171.78027" rx="4.6302085" ry="4.630208"/> <ellipse style="fill:#4d4d4d;fill-opacity:1;stroke:none;stroke-width:6.61459;stroke-linecap:round;stroke-miterlimit:4;stroke-dasharray:none;paint-order:fill markers stroke" id="ellipse30754" cx="173.88007" cy="171.78027" rx="4.6302085" ry="4.630208"/> <path style="fill:none;stroke:#0573e1;stroke-width:6.61458;stroke-linecap:round;stroke-linejoin:miter;stroke-miterlimit:4;stroke-dasharray:none;stroke-opacity:1" d="M 77.418782,137.27174 H 126.3667" id="path67634"/> <path style="fill:none;stroke:#0573e1;stroke-width:6.61458;stroke-linecap:round;stroke-linejoin:miter;stroke-miterlimit:4;stroke-dasharray:none;stroke-opacity:1" d="M 77.418782,147.85508 H 126.3667" id="path67636"/> </svg>